#N canvas 1282 23 632 1016 10;
#X obj 13 12 bng 35 250 50 0 s-bng1 r-bng1 empty 0 -9 0 10 #fcfcfc #000000 #000000;
#X obj 184 14 vu 18 80 r-vu1 empty -1 -9 0 10 #404040 #000000 0 0;
#X obj 163 16 vsl 18 80 0 127 0 0 s-vsl1 r-vsl1 empty 0 -9 0 10 #fcfcfc #000000 #000000 0 1;
#X text 56 18 Load Score;
#X obj 13 49 tgl 35 0 s-tgl1 r-tgl1 empty 0 -9 0 10 #fcfcfc #000000 #000000 0 1;
#X text 56 55 Following Score;
#X obj 121 121 r s-bng1;
#X obj 184 206 print not;
#X obj 121 205 print yes;
#X obj 9 122 adc~ 1;
#X obj 9 208 s r-vu1;
#X obj 56 122 r s-vsl1;
#X obj 9 145 *~ 1;
#X obj 9 168 vu~;
#X obj 121 182 file glob, f 11;
#X msg 121 144 symbol /*;
#X connect 6 0 15 0;
#X connect 9 0 12 0;
#X connect 11 0 12 1;
#X connect 12 0 13 0;
#X connect 13 0 10 0;
#X connect 14 0 8 0;
#X connect 14 1 7 0;
#X connect 15 0 14 0;
#X coords 0 -1 1 1 200 90 1 10 10;
