#N canvas 0 0 925 1132 10;
#X declare -path ../build/Sources/PureData;
#X obj 209 273 antescofo~;
#X obj 209 317 nbx 5 16 -1e+37 1e+37 0 0 empty empty empty 0 -9 0 10 #fcfcfc #000000 #000000 0 256;
#X obj 228 297 nbx 5 16 -1e+37 1e+37 0 0 empty empty empty 0 -9 0 10 #fcfcfc #000000 #000000 0 256;
#X obj 28 72 mar~;
#X obj 28 127 snake~ out 1;
#X msg 209 235 score assets/canticos-ante.txt \, start;
#X msg 28 42 open assets/canticos.mp3 \, 1;
#X obj 80 101 dac~ 1;
#X obj 5 3 declare -path ../build/Sources/PureData;
#X obj 28 275 o.scofo~, f 13;
#X msg 38 191 score assets/canticos.txt \, start;
#X obj 103 300 nbx 5 16 -1e+37 1e+37 0 0 empty empty empty 0 -9 0 10 #fcfcfc #000000 #000000 0 256;
#X obj 28 301 nbx 5 16 -1e+37 1e+37 0 0 empty empty empty 0 -9 0 10 #fcfcfc #000000 #000000 0 256;
#X obj 305 138 bng 18 250 50 0 empty empty empty 0 -9 0 10 #fcfcfc #000000 #000000;
#X obj 28 511 print oscofo;
#X obj 209 512 print antescofo;
#X obj 306 313 bang~;
#X obj 306 397 else/count;
#X obj 28 465 list;
#X obj 246 342 sel 1;
#X msg 246 364 0;
#X obj 306 419 nbx 5 16 -1e+37 1e+37 0 0 empty empty empty 0 -9 0 10 #fcfcfc #000000 #000000 0 256;
#X obj 209 477 list;
#X connect 0 0 1 0;
#X connect 0 1 2 0;
#X connect 1 0 19 0;
#X connect 1 0 22 0;
#X connect 3 0 4 0;
#X connect 3 0 7 0;
#X connect 4 0 0 0;
#X connect 4 0 9 0;
#X connect 5 0 0 0;
#X connect 6 0 3 0;
#X connect 9 0 12 0;
#X connect 9 1 11 0;
#X connect 10 0 9 0;
#X connect 12 0 18 0;
#X connect 13 0 5 0;
#X connect 13 0 10 0;
#X connect 16 0 17 0;
#X connect 17 0 21 0;
#X connect 18 0 14 0;
#X connect 19 0 20 0;
#X connect 20 0 17 0;
#X connect 21 0 22 1;
#X connect 21 0 18 1;
#X connect 22 0 15 0;
