#N canvas 0 0 1299 1132 10;
#X declare -path ../build/Sources/PureData;
#X declare -lib xlab;
#X obj 5 4 declare -path ../build/Sources/PureData;
#X obj 4 25 declare -lib xlab;
#X obj 13 344 nbx 5 16 -1e+37 1e+37 0 0 empty empty empty 0 -9 0 10 #fcfcfc #000000 #000000 0 256;
#X obj 107 344 nbx 5 16 -1e+37 1e+37 0 0 empty empty empty 0 -9 0 10 #fcfcfc #000000 #000000 0 256;
#X msg 14 50 open assets/bwv-1013.mp3 \, 1;
#X msg 28 74 open assets/canticos.mp3 \, 1;
#X obj 202 391 print;
#X msg 13 249 get descriptors oscofo;
#X obj 8 107 array define oscofo 2048;
#X obj 352 301 l.orchidea;
#X msg 352 186 inst Flute;
#X msg 374 216 note C5;
#X msg 394 245 tech ord;
#X msg 352 352 open \$1 \, 1;
#X obj 352 374 mar~;
#X obj 352 462 tabwrite~ oscofo;
#X obj 352 323 t a b, f 18;
#X obj 457 385 bng 18 250 50 0 empty empty empty 0 -9 0 10 #fcfcfc #000000 #000000;
#X obj 308 462 dac~ 1;
#X obj 457 360 del 500 1 msec;
#X obj 352 396 *~ 5;
#X obj 13 322 o.scofo~ mfcc silence loudness chroma;
#X connect 7 0 21 0;
#X connect 9 0 16 0;
#X connect 10 0 9 0;
#X connect 11 0 9 0;
#X connect 12 0 9 0;
#X connect 13 0 14 0;
#X connect 14 0 18 0;
#X connect 14 0 20 0;
#X connect 16 0 13 0;
#X connect 16 1 19 0;
#X connect 17 0 15 0;
#X connect 19 0 17 0;
#X connect 20 0 15 0;
#X connect 21 0 2 0;
#X connect 21 1 3 0;
#X connect 21 2 6 0;
