#N canvas 0 0 1299 1132 10;
#X declare -path ./../build/Sources/PureData;
#X declare -path xlab;
#X obj 30 14 declare -path ./../build/Sources/PureData;
#X obj 25 228 o.scofo~ cqt, f 25;
#X obj 224 125 declare -path xlab;
#X msg 94 168 score /home/neimog/Documents/Git/OScofo/Resources/tests/bwv-1007.txt \, start;
#X obj 172 267 route cqt;
#X obj 172 289 list prepend features;
#X obj 172 385 onnx pitch.onnx label probabilities;
#X symbolatom 172 441 10 0 0 0 - - - 0;
#X listbox 277 457 59 0 0 0 - - - 0;
#X obj 42 102 readsf~;
#X msg 48 49 open /home/neimog/Nextcloud/MusicData/Samples/Orchidea/Strings/Viola/ordinario/Va-ord-A3-pp-4c-T14u.wav \, 1, f 73;
#X obj 69 131 dac~;
#X connect 1 2 4 0;
#X connect 3 0 1 0;
#X connect 4 0 5 0;
#X connect 5 0 6 0;
#X connect 6 0 7 0;
#X connect 6 1 8 0;
#X connect 9 0 1 0;
#X connect 9 0 11 0;
#X connect 9 0 11 1;
#X connect 10 0 9 0;
