#N canvas 0 0 925 1132 10;
#X declare -path ../build/Sources/PureData;
#X declare -lib xlab;
#X obj 5 4 declare -path ../build/Sources/PureData;
#X obj 14 439 o.scofo~, f 20;
#X obj 4 25 declare -lib xlab;
#X msg 66 318 score assets/wrongfftsize.txt;
#X msg 103 353 score assets/wrongtrill.txt;
#X obj 14 461 nbx 5 16 -1e+37 1e+37 0 0 empty empty empty 0 -9 0 10 #fcfcfc #000000 #000000 0 256;
#X msg 44 268 score assets/bwv-1013.txt \, start;
#X obj 14 240 snake~ out 1;
#X obj 131 462 nbx 5 16 -1e+37 1e+37 0 0 empty empty empty 0 -9 0 10 #fcfcfc #000000 #000000 0 256;
#X msg 14 50 open assets/bwv-1013.mp3 \, 1;
#X obj 59 139 bng 18 250 50 0 empty empty empty 0 -9 0 10 #fcfcfc #000000 #000000;
#X msg 131 373 score assets/all-tokens.txt;
#X msg 28 74 open assets/canticos.mp3 \, 1;
#X msg 57 294 score assets/canticos.txt \, start;
#X floatatom 316 247 5 0 0 0 - - - 0;
#X obj 316 159 cputime;
#X obj 316 39 loadbang;
#X obj 316 103 metro 1000;
#X obj 316 131 t b b;
#X obj 316 219 * 0.1;
#X obj 316 188 int;
#X obj 316 70 tgl 19 0 empty empty empty 17 7 0 10 #dfdfdf #000000 #000000 0 1;
#X text 340 70 <-- on/off;
#X obj 14 170 mar~;
#X obj 126 207 dac~ 1;
#X msg 48 119 0;
#X msg 167 392 score assets/lua.txt \, start;
#X connect 1 0 5 0;
#X connect 1 1 8 0;
#X connect 3 0 1 0;
#X connect 4 0 1 0;
#X connect 6 0 1 0;
#X connect 7 0 1 0;
#X connect 9 0 23 0;
#X connect 10 0 23 0;
#X connect 11 0 1 0;
#X connect 12 0 23 0;
#X connect 13 0 1 0;
#X connect 15 0 20 0;
#X connect 16 0 21 0;
#X connect 17 0 18 0;
#X connect 18 0 15 0;
#X connect 18 1 15 1;
#X connect 19 0 14 0;
#X connect 20 0 19 0;
#X connect 21 0 17 0;
#X connect 23 0 7 0;
#X connect 23 0 24 0;
#X connect 25 0 23 0;
#X connect 26 0 1 0;
