#N canvas 0 0 925 1132 10;
#X declare -lib xlab;
#X declare -path ../build/Sources/PureData;
#X declare -path ../Resources;
#X obj 4 3 declare -lib xlab;
#X obj 4 23 declare -path ../build/Sources/PureData;
#X obj 4 269 o.scofo~, f 18;
#X obj 4 103 mar~;
#X msg 4 65 open time-test.mp3 \, 1;
#X obj 4 203 snake~ out 1;
#X msg 197 198 score time-test.txt \, start;
#X obj 4 291 nbx 5 16 -1e+37 1e+37 0 0 empty empty empty 0 -9 0 10 #fcfcfc #000000 #000000 0 256;
#X obj 109 293 nbx 5 16 -1e+37 1e+37 0 0 empty empty empty 0 -9 0 10 #fcfcfc #000000 #000000 0 256;
#X obj 44 144 dac~;
#X obj 197 292 nbx 5 16 -1e+37 1e+37 0 0 empty empty empty 0 -9 0 10 #fcfcfc #000000 #000000 0 256;
#X obj 302 294 nbx 5 16 -1e+37 1e+37 0 0 empty empty empty 0 -9 0 10 #fcfcfc #000000 #000000 0 256;
#X obj 4 43 declare -path ../Resources;
#X obj 197 270 antescofo~, f 30;
#X obj 4 175 *~ 4;
#X connect 2 0 7 0;
#X connect 2 1 8 0;
#X connect 3 0 9 0;
#X connect 3 0 9 1;
#X connect 3 0 14 0;
#X connect 4 0 3 0;
#X connect 5 0 2 0;
#X connect 5 0 13 0;
#X connect 6 0 2 0;
#X connect 6 0 13 0;
#X connect 13 0 10 0;
#X connect 13 1 11 0;
#X connect 14 0 5 0;
