#N canvas 0 0 925 1132 10;
#X declare -path ../build/Sources/PureData -path tests;
#X declare -path ../build/Sources/PureData -path Audios;
#X declare -lib neimog;
#X declare -lib xlab;
#X obj 10 358 s event;
#X text 403 353 Check charlesneimog.github.io/OpenScofo to Documentation about the Score Languague., f 44;
#X text 167 314 BPM;
#X text 14 333 Event Index;
#X floatatom 115 314 8 0 0 0 - - - 0;
#X text 139 9 3);
#X text 265 126 1);
#X floatatom 10 313 8 0 0 0 - - - 0;
#X msg 407 389 browse https://charlesneimog.github.io/OpenScofo/score/intro/, f 33;
#X obj 407 438 pdcontrol;
#X text 107 96 <= Require ELSE library;
#X msg 10 11 open bwv-1013.mp3 \, 1;
#X obj 343 491 else/meter;
#X obj 343 513 nbx 5 16 -1e+37 1e+37 0 0 empty empty empty 0 -9 0 10 #fcfcfc #000000 #000000 0 256;
#N canvas 0 0 925 1132 config 0;
#X obj 30 60 declare -path ../build/Sources/PureData -path tests;
#X obj 30 80 declare -path ../build/Sources/PureData -path Audios;
#X restore 179 10 pd config;
#X obj 31 403 declare -lib neimog;
#X obj 10 281 o.scofo~, f 18;
#X msg 19 31 open canticos.wav \, 1;
#X obj 264 21 r measure;
#X obj 264 43 nbx 5 16 -1e+37 1e+37 0 0 empty empty empty 0 -9 0 10 #fcfcfc #000000 #000000 0 256;
#X obj 264 67 declare -lib xlab;
#X obj 10 96 mar~;
#X obj 10 237 snake~ out;
#X obj 23 128 dac~ 1;
#X msg 29 59 open bwv-1007.mp3 \, 1;
#X msg 50 87 0;
#X msg 72 126 score Tests/bwv-1013.txt \, start;
#X msg 76 148 score Tests/canticos.txt \, start;
#X msg 87 171 score Tests/bwv-1007.txt \, start;
#X obj 102 214 tgl 18 0 empty empty empty 0 -9 0 10 #fcfcfc #000000 #000000 0 1;
#X msg 102 241 set verbosity \$1;
#X text 502 213 1);
#X obj 10 185 *~ 2;
#X obj 254 291 antescofo~;
#X text 437 205 1);
#X msg 244 205 score Tests/bwv-1013.txt \, start;
#X obj 286 338 nbx 5 16 -1e+37 1e+37 0 0 empty empty empty 0 -9 0 10 #fcfcfc #000000 #000000 0 256;
#X obj 212 337 nbx 5 16 -1e+37 1e+37 0 0 empty empty empty 0 -9 0 10 #fcfcfc #000000 #000000 0 256;
#X connect 7 0 0 0;
#X connect 8 0 9 0;
#X connect 11 0 21 0;
#X connect 12 0 13 0;
#X connect 16 0 7 0;
#X connect 16 1 4 0;
#X connect 17 0 21 0;
#X connect 18 0 19 0;
#X connect 21 0 23 0;
#X connect 21 0 32 0;
#X connect 22 0 16 0;
#X connect 22 0 33 0;
#X connect 24 0 21 0;
#X connect 25 0 21 0;
#X connect 26 0 16 0;
#X connect 27 0 16 0;
#X connect 28 0 16 0;
#X connect 29 0 30 0;
#X connect 30 0 16 0;
#X connect 32 0 22 0;
#X connect 33 0 37 0;
#X connect 33 1 36 0;
#X connect 35 0 33 0;
