#N canvas 0 0 925 1132 10;
#X declare -path ../build/Sources/PureData -path tests;
#X declare -path ../build/Sources/PureData -path Audios;
#X declare -lib neimog;
#X declare -lib xlab;
#X obj 10 471 s event;
#X text 235 238 Check charlesneimog.github.io/OpenScofo to Documentation about the Score Languague., f 44;
#X text 137 426 BPM;
#X text 14 446 Event Index;
#X floatatom 85 426 8 0 0 0 - - - 0;
#X text 139 9 3);
#X text 149 257 2);
#X text 224 126 1);
#X floatatom 10 426 8 0 0 0 - - - 0;
#X msg 108 371 start;
#X msg 239 274 browse https://charlesneimog.github.io/OpenScofo/score/intro/, f 33;
#X obj 239 323 pdcontrol;
#X text 107 96 <= Require ELSE library;
#X msg 10 11 open bwv-1013.mp3 \, 1;
#X obj 343 491 else/meter;
#X obj 343 513 nbx 5 16 -1e+37 1e+37 0 0 empty empty empty 0 -9 0 10 #fcfcfc #000000 #000000 0 256;
#N canvas 0 0 925 1132 config 0;
#X obj 30 60 declare -path ../build/Sources/PureData -path tests;
#X obj 30 80 declare -path ../build/Sources/PureData -path Audios;
#X restore 179 10 pd config;
#X obj 31 516 declare -lib neimog;
#X msg 19 31 open canticos.wav \, 1;
#X obj 264 21 r measure;
#X obj 264 43 nbx 5 16 -1e+37 1e+37 0 0 empty empty empty 0 -9 0 10 #fcfcfc #000000 #000000 0 256;
#X obj 264 67 declare -lib xlab;
#X obj 10 96 mar~;
#X obj 10 237 snake~ out;
#X obj 23 128 dac~ 1;
#X msg 72 126 score Tests/bwv-1013.txt;
#X msg 76 148 score Tests/canticos.txt;
#X msg 29 59 open bwv-1007.mp3 \, 1;
#X msg 87 171 score Tests/bwv-1007.txt;
#X obj 10 394 antescofo~, f 38;
#X msg 76 295 verbosity 2;
#X connect 8 0 0 0;
#X connect 9 0 29 0;
#X connect 10 0 11 0;
#X connect 13 0 22 0;
#X connect 14 0 15 0;
#X connect 18 0 22 0;
#X connect 19 0 20 0;
#X connect 22 0 23 0;
#X connect 22 0 24 0;
#X connect 23 0 29 0;
#X connect 25 0 29 0;
#X connect 26 0 29 0;
#X connect 27 0 22 0;
#X connect 28 0 29 0;
#X connect 29 0 8 0;
#X connect 29 1 4 0;
#X connect 30 0 29 0;
