#N canvas 0 0 925 1132 10;
#X declare -lib xlab;
#X declare -path ../src/;
#X obj 5 4 declare -lib xlab;
#X obj 5 24 declare -path ../src/;
#X obj 75 249 bhack.voice -playchords;
#X msg 5 208 play;
#X obj 75 344 bhack.getkey notes;
#X obj 75 366 bhack.nth 1;
#N canvas 0 0 925 1132 route 0;
#X obj 32 4 inlet;
#X obj 286 58 nbx 5 16 -1e+37 1e+37 0 0 empty empty empty 0 -9 0 10 #fcfcfc #000000 #000000 0 256;
#X obj 286 134 / 60000;
#X obj 286 79 t b f, f 7;
#X msg 286 101 60000;
#X obj 233 141 *;
#X obj 286 12 loadbang;
#X listbox 32 152 12 0 0 0 - - - 0;
#X obj 32 377 l.orchidea;
#X obj 83 317 loadbang;
#X msg 83 339 inst Flute;
#X msg 32 173 note \$1;
#X obj 32 102 bhack.getkey raw notehead duration;
#X obj 33 439 mar~, f 13;
#X msg 33 413 open \$1 \, bang;
#X obj 33 538 outlet~;
#X obj 233 212 del 1 1 msec;
#X obj 233 185 t b f b, f 22;
#X obj 360 353 line~;
#X obj 33 482 *~, f 55;
#X obj 286 156 nbx 5 16 -1e+37 1e+37 0 0 empty empty empty 0 -9 0 10 #fcfcfc #000000 #000000 0 256;
#X msg 286 34 60;
#X msg 360 229 0 \, 1 1;
#X msg 233 253 1 \, 0 10;
#X obj 71 57 timer;
#X obj 44 26 t b b;
#X obj 71 79 nbx 5 16 -1e+37 1e+37 0 0 empty empty empty 0 -9 0 10 #fcfcfc #000000 #000000 0 256;
#X obj 176 54 timer;
#X msg 138 15 tempo 1 msec;
#X obj 233 163 - 50;
#X obj 233 122 * 2;
#N canvas 0 0 925 1132 tech 0;
#X msg 104 53 add notehead \, add Whole \, add Black \, add Half, f 13;
#X obj 104 28 loadbang;
#X obj 104 117 bhack.str.sub;
#X obj 20 18 inlet;
#X obj 104 159 bhack.str.== Plus;
#X obj 11 159 bhack.str.== X;
#X obj 11 181 tgl 18 0 empty empty empty 0 -9 0 10 #fcfcfc #000000 #000000 0 1;
#X obj 104 181 tgl 18 0 empty empty empty 0 -9 0 10 #fcfcfc #000000 #000000 0 1;
#X obj 104 215 t b f, f 25;
#X obj 104 304 tgl 18 0 empty empty empty 0 -9 0 10 #fcfcfc #000000 #000000 0 1;
#X obj 11 204 sel 1;
#X obj 10 523 outlet;
#X obj 104 327 sel 1;
#X obj 286 159 bhack.str.== TriangleUp;
#X obj 286 181 tgl 18 0 empty empty empty 0 -9 0 10 #fcfcfc #000000 #000000 0 1;
#X obj 286 204 t b f;
#X obj 347 206 sel 1;
#X msg 347 228 tech tng_ram;
#X msg 11 226 tech key_cl;
#X obj 259 6 inlet duration;
#X obj 259 62 expr if($f1 < 300 \, 1 \, 0);
#X obj 259 84 tgl 18 0 empty empty empty 0 -9 0 10 #fcfcfc #000000 #000000 0 1;
#X obj 104 282 expr $f1 == 0 && $f2 == 0 && $f3 == 0 && $f4 == 0;
#X obj 259 107 sel 1;
#X msg 235 401 tech stacc;
#X msg 104 349 tech ord;
#X connect 0 0 2 0;
#X connect 1 0 0 0;
#X connect 2 0 4 0;
#X connect 2 0 5 0;
#X connect 2 0 13 0;
#X connect 3 0 2 0;
#X connect 4 0 7 0;
#X connect 5 0 6 0;
#X connect 6 0 10 0;
#X connect 6 0 22 0;
#X connect 7 0 8 0;
#X connect 8 0 22 0;
#X connect 8 1 22 1;
#X connect 9 0 12 0;
#X connect 10 0 18 0;
#X connect 12 0 25 0;
#X connect 13 0 14 0;
#X connect 13 0 16 0;
#X connect 14 0 15 0;
#X connect 15 0 22 0;
#X connect 15 1 22 2;
#X connect 16 0 17 0;
#X connect 17 0 11 0;
#X connect 18 0 11 0;
#X connect 19 0 20 0;
#X connect 20 0 21 0;
#X connect 21 0 22 3;
#X connect 21 0 23 0;
#X connect 22 0 9 0;
#X connect 23 0 24 0;
#X connect 24 0 11 0;
#X connect 25 0 11 0;
#X restore 96 210 pd tech;
#X connect 0 0 12 0;
#X connect 0 0 25 0;
#X connect 1 0 3 0;
#X connect 2 0 5 1;
#X connect 2 0 20 0;
#X connect 3 0 4 0;
#X connect 3 1 2 1;
#X connect 4 0 2 0;
#X connect 5 0 29 0;
#X connect 6 0 21 0;
#X connect 7 0 11 0;
#X connect 8 0 14 0;
#X connect 9 0 10 0;
#X connect 10 0 8 0;
#X connect 11 0 8 0;
#X connect 12 0 7 0;
#X connect 12 1 31 0;
#X connect 12 2 30 0;
#X connect 13 0 19 0;
#X connect 14 0 13 0;
#X connect 16 0 23 0;
#X connect 17 0 16 0;
#X connect 17 1 16 1;
#X connect 17 2 22 0;
#X connect 18 0 19 1;
#X connect 19 0 15 0;
#X connect 21 0 1 0;
#X connect 22 0 18 0;
#X connect 23 0 18 0;
#X connect 24 0 26 0;
#X connect 25 0 24 0;
#X connect 25 1 24 1;
#X connect 28 0 24 0;
#X connect 29 0 17 0;
#X connect 29 0 31 1;
#X connect 30 0 5 0;
#X connect 31 0 8 0;
#X restore 75 388 pd route;
#X obj 75 467 dac~, f 14;
#X obj 152 163 bng 18 250 50 0 empty empty empty 0 -9 0 10 #fcfcfc #000000 #000000;
#N canvas 0 0 925 1132 noteheads 0;
#X obj 21 75 bng 18 250 50 0 empty empty empty 0 -9 0 10 #fcfcfc #000000 #000000;
#X obj 21 123 bhack.iterate, f 22;
#X obj 150 150 b;
#X obj 21 451 outlet;
#X obj 21 33 loadbang;
#X obj 76 49 inlet;
#X obj 150 196 bhack.nth-random;
#X obj 21 101 bhack.arithmser 1 50 1;
#N canvas 0 0 925 1132 setnote 0;
#X msg 104 53 add notehead \, add Whole \, add Black \, add Half;
#X obj 104 28 loadbang;
#X obj 104 78 bhack.str.sub;
#X obj 20 18 inlet;
#X obj 11 138 bhack.str.== X;
#X obj 11 160 tgl 18 0 empty empty empty 0 -9 0 10 #fcfcfc #000000 #000000 0 1;
#X obj 11 287 sel 1;
#X obj 131 140 bhack.str.== TriangleUp;
#X obj 131 162 tgl 18 0 empty empty empty 0 -9 0 10 #fcfcfc #000000 #000000 0 1;
#X obj 318 312 sel 1;
#X obj 11 434 expr random(60 \, 72);
#X obj 131 320 sel 1;
#X obj 138 433 expr random(60 \, 84);
#X obj 135 523 outlet;
#X text 11 412 Key click extension;
#X text 142 411 Ordinario extension;
#X text 316 392 Tongue-ram extension;
#X obj 131 298 expr $f1 == 0 && $f2 == 0;
#X obj 104 100 t a a;
#X obj 318 411 expr random(48 \, 58);
#X connect 0 0 2 0;
#X connect 1 0 0 0;
#X connect 2 0 18 0;
#X connect 3 0 2 0;
#X connect 4 0 5 0;
#X connect 5 0 6 0;
#X connect 5 0 17 0;
#X connect 6 0 10 0;
#X connect 7 0 8 0;
#X connect 8 0 17 1;
#X connect 8 0 9 0;
#X connect 9 0 19 0;
#X connect 10 0 13 0;
#X connect 11 0 12 0;
#X connect 12 0 13 0;
#X connect 17 0 11 0;
#X connect 18 0 4 0;
#X connect 18 1 7 0;
#X connect 19 0 13 0;
#X restore 150 260 pd setnote;
#X obj 150 233 t a a, f 17;
#X obj 119 406 bhack.collect, f 22;
#X obj 248 381 bhack.list 1;
#X obj 21 145 t a a;
#X obj 21 365 bhack.collect, f 22;
#X obj 150 340 bhack.list 1;
#X obj 150 282 bhack.mton 96edo;
#X obj 119 451 outlet;
#X obj 194 107 bng 18 250 50 0 empty empty empty 0 -9 0 10 #fcfcfc #000000 #000000;
#X obj 304 442 outlet;
#X msg 207 150 list n n n n X TriangleUp;
#X msg 150 172 list n n n n;
#X connect 0 0 7 0;
#X connect 1 0 12 0;
#X connect 1 1 2 0;
#X connect 2 0 20 0;
#X connect 4 0 0 0;
#X connect 5 0 0 0;
#X connect 6 0 9 0;
#X connect 7 0 1 0;
#X connect 8 0 15 0;
#X connect 9 0 8 0;
#X connect 9 1 11 0;
#X connect 10 0 16 0;
#X connect 11 0 10 1;
#X connect 12 0 13 0;
#X connect 12 1 10 0;
#X connect 13 0 3 0;
#X connect 14 0 13 1;
#X connect 15 0 14 0;
#X connect 17 0 2 0;
#X connect 20 0 6 0;
#X restore 152 185 pd noteheads;
#X f 26;
#X obj 75 438 else/giga.rev~;
#X obj 5 128 t b a b, f 24;
#X obj 418 377 s again;
#X obj 418 357 spigot;
#X obj 451 329 tgl 18 0 empty empty empty 0 -9 0 10 #fcfcfc #000000 #000000 0 1;
#X obj 5 44 r again;
#N canvas 0 0 925 1132 ord 0;
#X obj 26 25 vradio 15 1 0 10 empty empty empty 0 -8 0 10 #dcdcdc #000000 #000000 0;
#N canvas 728 150 712 728 presets 0;
#X obj 73 21 inlet;
#X obj 88 576 s \$0-set;
#X obj 103 516 s \$0-set;
#X obj 118 453 s \$0-set;
#X obj 134 393 s \$0-set;
#X text 145 577 bathroom;
#X text 162 518 living room;
#X msg 73 608 size 40 \, decay 4 \, damp 0.9 \, bw 0.75 \, dry 1 \, early 0.795 \, late 0.04, f 66;
#X obj 73 633 s \$0-set;
#X text 130 634 "quick fix";
#X obj 149 333 s \$0-set;
#X obj 164 277 s \$0-set;
#X text 234 217 Last row of the church;
#X msg 180 194 size 200 \, decay 9 \, damp 0.7 \, bw 0.8 \, dry 0.1 \, early 0.18 \, late 0.4, f 66;
#X obj 180 216 s \$0-set;
#X obj 195 163 s \$0-set;
#X obj 210 109 s \$0-set;
#X obj 73 62 select 0 1 2 3 4 5 6 7 8 9;
#X msg 118 427 size 50 \, decay 1.5 \, damp 0.1 \, bw 0.75 \, dry 0.84 \, early 0.31 \, late 0.1, f 69;
#X text 179 453 Bright \, small hall;
#X msg 134 369 size 40 \, decay 20 \, damp 0.5 \, bw 0.75 \, dry 1 \, early 0.31 \, late 0.031, f 67;
#X text 191 395 Nice hall effect;
#X msg 149 309 size 6 \, decay 15 \, damp 0.9 \, bw 0.1 \, dry 0.31 \, early 0.31 \, late 0.31, f 67;
#X text 207 333 Singing in the Sewer;
#X text 220 278 church;
#X text 251 164 cathedral;
#X text 264 110 canyon;
#X msg 210 86 size 300 \, decay 103 \, damp 0.43 \, bw 0.51 \, dry 0.55 \, early 0.05 \, late 0.1, f 71;
#X msg 195 141 size 143 \, decay 7 \, damp 0.71 \, bw 0.34 \, dry 0.7 \, early 0.28 \, late 0.35, f 69;
#X msg 164 252 size 80 \, decay 4.85 \, damp 0.41 \, bw 0.69 \, dry 0.7 \, early 0.35 \, late 0.28, f 71;
#X msg 103 492 size 16 \, decay 1.24 \, damp 0.18 \, bw 0.95 \, dry 0.7 \, early 0.18 \, late 0.14, f 71;
#X msg 88 550 size 5 \, decay 0.6 \, damp 0.62 \, bw 0.48 \, dry 0.5 \, early 0.25 \, late 0.25, f 69;
#X obj 328 679 outlet;
#X obj 328 648 r \$0-set;
#X connect 0 0 17 0;
#X connect 7 0 8 0;
#X connect 13 0 14 0;
#X connect 17 0 7 0;
#X connect 17 1 31 0;
#X connect 17 2 30 0;
#X connect 17 3 18 0;
#X connect 17 4 20 0;
#X connect 17 5 22 0;
#X connect 17 6 29 0;
#X connect 17 7 13 0;
#X connect 17 8 28 0;
#X connect 17 9 27 0;
#X connect 18 0 3 0;
#X connect 20 0 4 0;
#X connect 22 0 10 0;
#X connect 27 0 16 0;
#X connect 28 0 15 0;
#X connect 29 0 11 0;
#X connect 30 0 2 0;
#X connect 31 0 1 0;
#X connect 33 0 32 0;
#X restore 26 248 pd presets;
#X text 26 3 presets \;;
#X text 46 40 - bathroom, f 13;
#X text 46 24 - "quick fix";
#X text 46 55 - living room;
#X text 46 115 - church;
#X text 46 100 - singing in the Sewer;
#X text 46 86 - nice hall effect;
#X text 46 70 - bright \, small hall;
#X text 46 130 - last row of the church;
#X text 46 145 - cathedral;
#X text 46 160 - canyon;
#X obj 26 270 outlet;
#X obj 65 191 loadbang;
#X msg 65 213 2;
#X connect 0 0 1 0;
#X connect 1 0 13 0;
#X connect 14 0 15 0;
#X connect 15 0 1 0;
#X restore 112 410 pd ord;
#X obj 386 182 loadbang;
#N canvas 0 0 925 1132 create-trees 0;
#X obj 4 3 inlet;
#X obj 241 198 bhack.nth-random;
#X obj 126 124 t b b b, f 39;
#X obj 405 260 t b f, f 10;
#X obj 405 285 bhack.arithmser 1 1 1;
#X obj 585 347 t b f, f 10;
#X obj 585 369 bhack.arithmser 1 1 1;
#X obj 585 391 bhack.iterate;
#X obj 585 519 bhack.collect;
#X obj 126 310 bhack.list 2;
#X obj 126 220 t f f, f 15;
#X obj 126 252 bhack.list 2;
#X msg 241 175 4 8;
#X obj 4 412 outlet;
#X obj 480 379 bhack.list 2;
#X msg 480 358 1;
#X obj 405 307 bhack.iterate;
#X obj 480 331 t b b;
#X obj 405 431 bhack.collect;
#X obj 660 495 nbx 5 16 -1e+37 1e+37 0 0 empty empty empty 0 -9 0 10 #fcfcfc #000000 #000000 0 256;
#X obj 660 417 bng 18 250 50 0 empty empty empty 0 -9 0 10 #fcfcfc #000000 #000000;
#X obj 660 473 expr if(random(0 \, 100) > 80 \, -1 \, 1);
#X obj 585 326 expr random(1 \, 3);
#X obj 126 174 bhack.nth-random;
#X obj 126 196 bhack.topd;
#X msg 126 146 list 3 4 5;
#X obj 4 73 bhack.arithmser 1 1 1;
#X obj 4 47 t b f, f 11;
#X obj 4 95 bhack.iterate;
#X obj 4 377 bhack.collect, f 21;
#X obj 4 25 expr random(1 \, 4);
#X connect 0 0 30 0;
#X connect 1 0 11 1;
#X connect 2 0 25 0;
#X connect 2 1 12 0;
#X connect 3 0 4 0;
#X connect 3 1 4 1;
#X connect 4 0 16 0;
#X connect 5 0 6 0;
#X connect 5 1 6 1;
#X connect 6 0 7 0;
#X connect 7 0 8 0;
#X connect 7 1 20 0;
#X connect 8 0 14 1;
#X connect 9 0 29 1;
#X connect 10 0 11 0;
#X connect 10 1 3 0;
#X connect 11 0 9 0;
#X connect 12 0 1 0;
#X connect 14 0 18 1;
#X connect 15 0 14 0;
#X connect 16 0 18 0;
#X connect 16 1 17 0;
#X connect 17 0 15 0;
#X connect 17 1 22 0;
#X connect 18 0 9 1;
#X connect 19 0 8 1;
#X connect 20 0 21 0;
#X connect 21 0 19 0;
#X connect 22 0 5 0;
#X connect 23 0 24 0;
#X connect 24 0 10 0;
#X connect 25 0 23 0;
#X connect 26 0 28 0;
#X connect 27 0 26 0;
#X connect 27 1 26 1;
#X connect 28 0 29 0;
#X connect 28 1 2 0;
#X connect 29 0 13 0;
#X connect 30 0 27 0;
#X restore 5 79 pd create-trees;
#X obj 62 46 bng 18 250 50 0 empty empty empty 0 -9 0 10 #fcfcfc #000000 #000000;
#X msg 386 212 size 350 90;
#X obj 75 410 *~ 8;
#X obj 75 209 bhack.voicebuilder -noteheads -dynamics;
#X obj 190 34 l.orchidea;
#X msg 190 12 setpath /home/neimog/Nextcloud/MusicData/Samples/Orchidea;
#X obj 294 441 o.scofo~;
#X msg 24 168 export oscofo.txt;
#X connect 2 0 4 0;
#X connect 2 1 13 0;
#X connect 3 0 2 0;
#X connect 4 0 5 0;
#X connect 5 0 6 0;
#X connect 6 0 21 0;
#X connect 8 0 9 0;
#X connect 9 0 22 1;
#X connect 9 1 22 2;
#X connect 9 2 22 3;
#X connect 10 0 7 0;
#X connect 10 1 7 1;
#X connect 11 0 3 0;
#X connect 11 1 22 0;
#X connect 11 2 8 0;
#X connect 13 0 12 0;
#X connect 14 0 13 1;
#X connect 15 0 18 0;
#X connect 16 0 10 0;
#X connect 17 0 20 0;
#X connect 18 0 11 0;
#X connect 19 0 18 0;
#X connect 20 0 2 0;
#X connect 21 0 10 0;
#X connect 22 0 2 0;
#X connect 24 0 23 0;
#X connect 26 0 2 0;
