#N canvas 963 23 951 1016 10;
#X declare -path else;
#X obj 9 441 nbx 3 24 -1e+37 1e+37 0 0 empty empty empty 0 -9 0 20 #fcfcfc #ff0400 #ff0400 0 256;
#X obj 125 17 cnv 18 10 10 empty empty BWV-1013 20 12 0 18 #ffffff #000000 0;
#X obj 9 417 o.scofo~, f 31;
#X obj 160 98 declare -path else;
#X obj 160 78 array define sound;
#X obj 9 100 file glob;
#X obj 9 57 file patchpath;
#X obj 9 5 bng 18 250 50 0 empty empty empty 0 -9 0 10 #fcfcfc #000000 #000000;
#X msg 9 79 symbol \$1/*.mp3;
#X obj 9 122 t a b, f 13;
#X obj 84 144 int, f 8;
#X obj 111 193 + 1, f 8;
#X obj 84 216 expr if($f1 == $f2 \, 1 \, 0);
#X obj 9 241 spigot;
#X obj 9 35 t b b, f 19;
#X msg 129 78 0;
#X obj 84 166 t f f;
#X obj 231 193 nbx 5 16 -1e+37 1e+37 0 0 empty empty empty 0 -9 0 10 #fcfcfc #000000 #000000 0 256;
#X obj 100 308 file splitext;
#X msg 100 285 list \$1;
#X msg 100 337 score \$1.txt \, start;
#X obj 9 263 t b a a, f 31;
#X obj 9 144 print;
#X obj 229 337 play.file~;
#X obj 229 372 dac~;
#X msg 229 313 open \$1;
#X msg 9 285 start;
#X obj 286 371 bng 18 250 50 0 empty empty empty 0 -9 0 10 #fcfcfc #000000 #000000;
#X obj 286 394 print done;
#X obj 101 442 nbx 4 24 -1e+37 1e+37 0 0 empty empty empty 0 -9 0 20 #fcfcfc #0400ff #ff0400 0 256;
#X connect 2 0 0 0;
#X connect 2 1 29 0;
#X connect 5 0 9 0;
#X connect 6 0 8 0;
#X connect 7 0 14 0;
#X connect 8 0 5 0;
#X connect 9 0 13 0;
#X connect 9 0 22 0;
#X connect 9 1 10 0;
#X connect 10 0 16 0;
#X connect 11 0 10 1;
#X connect 12 0 13 1;
#X connect 13 0 21 0;
#X connect 14 0 6 0;
#X connect 14 1 15 0;
#X connect 15 0 10 1;
#X connect 16 0 12 0;
#X connect 16 1 11 0;
#X connect 17 0 12 1;
#X connect 18 0 20 0;
#X connect 19 0 18 0;
#X connect 20 0 2 0;
#X connect 21 0 26 0;
#X connect 21 1 19 0;
#X connect 21 2 25 0;
#X connect 23 0 24 0;
#X connect 23 0 24 1;
#X connect 23 0 2 0;
#X connect 23 1 27 0;
#X connect 25 0 23 0;
#X connect 26 0 2 0;
#X connect 27 0 28 0;
