#N canvas 0 0 1299 1132 10;
#X declare -lib xlab;
#X declare -lib timbreIDLib;
#X obj 4 4 declare -lib xlab;
#X obj 4 213 py.train, f 28;
#N canvas 0 0 925 1132 config 0;
#X obj 4 50 declare -lib timbreIDLib;
#X text 156 49 <= Must be last version;
#X msg 5 103 pip install skl2onnx;
#X msg 48 127 pip install catboost;
#X text 138 103 1) Click in this first;
#X text 177 127 2) Click in this second;
#X msg 47 237 pip install numpy librosa scikit-learn catboost;
#X text 54 188 <= If this not work means that you don't have py4pd \, INSTALL IT FIRST;
#X restore 4 38 pd config;
#X obj 244 353 list trim;
#X obj 169 238 unpack f s, f 29;
#X msg 25 131 train;
#X msg 18 107 analyze;
#X obj 244 331 list prepend, f 29;
#X obj 65 46 cnv 18 1 1 empty empty <=\ Check\ this\ first\,\ you\ need\ to\ install\ things! 0 0 0 10 #ffffff #ff0400 0;
#X text 67 108 2);
#X text 64 130 3);
#X text 145 154 4);
#X text 3 62 1) Folder not provided \, you must create your data.;
#X msg 4 84 trainfolder /home/neimog/Downloads/Flute;
#X msg 34 155 export flute.onnx;
#X obj 285 84 array define train;
#X obj 169 286 o.scofo~ mfcc;
#X msg 169 264 get descriptors train \$1;
#X obj 244 308 route mfcc;
#X obj 273 461 s data;
#X obj 169 139 r data;
#X obj 300 398 else/count;
#X obj 300 420 nbx 10 16 -1e+37 1e+37 0 0 empty empty empty 0 -9 0 10 #fcfcfc #000000 #000000 0 256;
#X obj 300 376 b;
#X text 398 417 Processed;
#X obj 112 10 cnv 18 1 1 empty empty This\ requires\ the\ py4pd\ and\ Python\ installed. 0 0 0 10 #ffffff #ff0400 0;
#X msg 37 189 reload;
#X obj 243 461 t a;
#X text 183 212 <= Objeto escrito em python.;
#X connect 1 1 4 0;
#X connect 3 0 19 0;
#X connect 3 0 23 0;
#X connect 3 0 27 0;
#X connect 4 0 17 0;
#X connect 4 1 7 1;
#X connect 5 0 1 0;
#X connect 6 0 1 0;
#X connect 7 0 3 0;
#X connect 13 0 1 0;
#X connect 14 0 1 0;
#X connect 16 2 18 0;
#X connect 17 0 16 0;
#X connect 18 0 7 0;
#X connect 20 0 1 1;
#X connect 21 0 22 0;
#X connect 23 0 21 0;
#X connect 26 0 1 0;
