#N canvas 0 0 1299 1132 10;
#X declare -lib xlab;
#X obj 4 4 declare -lib xlab;
#X obj 340 200 py.train, f 28;
#N canvas 0 0 925 1132 config 0;
#X text 9 7 <= If this not work means that you don't have py4pd \, INSTALL IT FIRST;
#X msg 5 46 pip install numpy librosa scikit-learn catboost skl2onnx;
#X obj 94 204 py.pip;
#X restore 4 38 pd config;
#X msg 361 123 train;
#X msg 354 99 analyze;
#X obj 65 46 cnv 18 1 1 empty empty <=\ Check\ this\ first\,\ you\ need\ to\ install\ things! 0 0 0 10 #ffffff #ff0400 0;
#X text 403 100 2);
#X text 400 122 3);
#X text 481 146 4);
#X text 3 62 1) Folder not provided \, you must create your data.;
#X msg 340 76 trainfolder /home/neimog/Downloads/Flute;
#X msg 370 147 export flute.onnx;
#X obj 621 76 array define train;
#X obj 112 10 cnv 18 1 1 empty empty This\ requires\ the\ py4pd\ and\ Python\ installed. 0 0 0 10 #ffffff #ff0400 0;
#X msg 373 176 reload;
#X text 519 199 <= Objeto escrito em python.;
#X obj 505 222 nbx 9 16 -1e+37 1e+37 0 0 empty empty empty 0 -9 0 10 #fcfcfc #000000 #000000 0 256;
#X text 502 238 Processed sounds;
#X obj 6 226 l.orchidea;
#X msg 6 248 open \$1 \, 1;
#X obj 6 272 mar~, f 17;
#X obj 6 412 *~ 8;
#X obj 6 442 dac~ 1 2;
#X obj 236 427 onnx flute.onnx label probabilities;
#X msg 114 272 set justdescription 1;
#X listbox 443 449 31 0 0 0 - - - 0;
#X obj 237 389 list prepend features;
#X obj 406 388 nbx 5 16 -1e+37 1e+37 0 0 empty empty empty 0 -9 0 10 #fcfcfc #000000 #000000 0 256;
#X obj 240 478 symbol;
#X obj 406 528 sel 1;
#X listbox 240 500 20 0 0 0 - - - 0;
#X obj 240 521 print;
#X obj 406 484 expr if($f1 < 0.7 \, 1 \, 0);
#X msg 6 96 inst Flute \, tech key_cl \, note C4;
#X msg 39 117 inst Flute \, tech pizz \, note C4;
#X msg 106 178 Fl-tng_ram-C4-mf-N-N.wav;
#X msg 52 141 inst Flute \, tech tng_ram \, note C4;
#X obj 114 295 o.scofo~ mfcc silence zcr;
#X obj 237 367 route mfcc silence zcr, f 57;
#X obj 484 404 nbx 5 16 -1e+37 1e+37 0 0 empty empty empty 0 -9 0 10 #fcfcfc #000000 #000000 0 256;
#X connect 1 1 16 0;
#X connect 3 0 1 0;
#X connect 4 0 1 0;
#X connect 10 0 1 0;
#X connect 11 0 1 0;
#X connect 14 0 1 0;
#X connect 18 0 19 0;
#X connect 19 0 20 0;
#X connect 20 0 21 0;
#X connect 20 0 37 0;
#X connect 21 0 22 0;
#X connect 21 0 22 1;
#X connect 23 0 28 1;
#X connect 23 1 25 0;
#X connect 24 0 37 0;
#X connect 26 0 23 0;
#X connect 27 0 32 0;
#X connect 28 0 30 0;
#X connect 29 0 28 0;
#X connect 30 0 31 0;
#X connect 32 0 29 0;
#X connect 33 0 18 0;
#X connect 34 0 18 0;
#X connect 36 0 18 0;
#X connect 37 2 38 0;
#X connect 38 0 26 0;
#X connect 38 1 27 0;
#X connect 38 2 39 0;
