#N canvas 0 0 1299 1132 10;
#X declare -lib xlab;
#X declare -lib timbreIDLib;
#X obj 4 4 declare -lib xlab;
#X obj 4 213 py.train, f 28;
#N canvas 0 0 925 1132 config 0;
#X obj 4 50 declare -lib timbreIDLib;
#X text 156 49 <= Must be last version;
#X msg 5 103 pip install skl2onnx;
#X msg 48 127 pip install catboost;
#X text 138 103 1) Click in this first;
#X text 177 127 2) Click in this second;
#X msg 47 237 pip install numpy librosa scikit-learn catboost;
#X text 54 188 <= If this not work means that you don't have py4pd \, INSTALL IT FIRST;
#X restore 4 38 pd config;
#X obj 335 306 list trim;
#X obj 260 191 unpack f s, f 29;
#X obj 6 258 bng 18 250 50 0 empty empty empty 0 -9 0 10 #fcfcfc #000000 #000000;
#X msg 25 131 train;
#X msg 18 107 analyze;
#X obj 335 284 list prepend, f 29;
#X obj 65 46 cnv 18 1 1 empty empty <=\ Check\ this\ first\,\ you\ need\ to\ install\ things! 0 0 0 10 #ffffff #ff0400 0;
#X text 67 108 2);
#X text 64 130 3);
#X text 145 154 4);
#X text 194 164 Train model using mfcc from timbreIDLib;
#X text 3 62 1) Folder not provided \, you must create your data.;
#X msg 4 84 trainfolder /home/neimog/Downloads/Flute;
#X msg 34 155 export flute.onnx;
#X obj 285 84 array define train;
#X obj 260 239 o.scofo~ mfcc;
#X msg 260 217 get descriptors train \$1;
#X msg 437 135 analyze \$1 2048;
#X obj 437 158 mfcc train 190;
#X obj 335 261 route mfcc;
#X obj 364 414 s data;
#X obj 169 139 r data;
#X obj 391 351 else/count;
#X obj 391 373 nbx 10 16 -1e+37 1e+37 0 0 empty empty empty 0 -9 0 10 #fcfcfc #000000 #000000 0 256;
#X obj 391 329 b;
#X text 489 370 Processed;
#X obj 112 10 cnv 18 1 1 empty empty This\ requires\ the\ py4pd\ and\ Python\ installed. 0 0 0 10 #ffffff #ff0400 0;
#X msg 37 189 reload;
#X obj 334 414 t a;
#X obj 53 416 o.scofo~ mfcc;
#X obj 45 296 l.orchidea;
#X obj 6 344 mar~;
#X obj 6 507 dac~ 1;
#X obj 53 371 snake~ out 1;
#X msg 70 268 note C4, f 8;
#X msg 45 318 open \$1 \, 1;
#X obj 132 371 tgl 18 0 empty empty empty 0 -9 0 10 #fcfcfc #000000 #000000 0 1;
#X msg 132 393 set justdescription \$1;
#X obj 6 478 *~ 8;
#X obj 128 438 route mfcc;
#X obj 128 465 list prepend features;
#X obj 128 489 onnx flute.onnx label probabilities;
#X obj 335 519 print;
#X msg 45 247 inst Flute \, tech tng_ram;
#X listbox 128 511 20 0 0 0 - - - 0;
#X connect 1 1 4 0;
#X connect 3 0 23 0;
#X connect 3 0 27 0;
#X connect 3 0 31 0;
#X connect 4 0 19 0;
#X connect 4 1 8 1;
#X connect 5 0 34 0;
#X connect 6 0 1 0;
#X connect 7 0 1 0;
#X connect 8 0 3 0;
#X connect 15 0 1 0;
#X connect 16 0 1 0;
#X connect 18 2 22 0;
#X connect 19 0 18 0;
#X connect 20 0 21 0;
#X connect 22 0 8 0;
#X connect 24 0 1 1;
#X connect 25 0 26 0;
#X connect 27 0 25 0;
#X connect 30 0 1 0;
#X connect 32 2 42 0;
#X connect 33 0 38 0;
#X connect 34 0 36 0;
#X connect 34 0 41 0;
#X connect 36 0 32 0;
#X connect 37 0 33 0;
#X connect 38 0 34 0;
#X connect 39 0 40 0;
#X connect 40 0 32 0;
#X connect 41 0 35 0;
#X connect 42 0 43 0;
#X connect 43 0 44 0;
#X connect 44 0 47 0;
#X connect 44 1 45 0;
#X connect 46 0 33 0;
