#N canvas 0 0 1299 1132 10;
#X declare -lib xlab;
#X declare -lib timbreIDLib;
#X obj 4 4 declare -lib xlab;
#X obj 5 190 py.train, f 28;
#N canvas 0 0 925 1132 config 0;
#X obj 4 50 declare -lib timbreIDLib;
#X text 156 49 <= Must be last version;
#X obj 5 188 py.pip;
#X msg 5 103 pip install skl2onnx;
#X msg 48 127 pip install catboost;
#X text 138 103 1) Click in this first;
#X text 177 127 2) Click in this second;
#X obj 47 259 py.pip;
#X msg 47 237 pip install numpy librosa scikit-learn catboost;
#X text 54 188 <= If this not work means that you don't have py4pd \, INSTALL IT FIRST;
#X connect 3 0 2 0;
#X connect 4 0 2 0;
#X connect 8 0 7 0;
#X restore 4 38 pd config;
#X msg 195 261 analyze \$1 2048;
#X obj 195 284 mfcc train 190;
#X obj 195 334 list trim;
#X obj 195 237 unpack f s, f 22;
#X obj 438 385 tabplay~ train;
#X obj 438 431 dac~;
#X obj 438 359 bng 18 250 50 0 empty empty empty 0 -9 0 10 #fcfcfc #000000 #000000;
#X msg 26 131 train;
#X msg 19 107 analyze;
#X obj 103 239 bang~;
#X obj 103 261 int;
#X obj 103 283 + 1;
#X obj 103 305 % 16;
#X obj 103 327 sel 0;
#X obj 3 290 receive~ t;
#X listbox 210 478 20 0 0 0 - - - 0;
#X msg 34 409 dump tensors_inputs;
#X obj 3 379 list prepend features;
#X obj 3 358 mfcc~ 2048 190;
#X obj 474 431 send~ t;
#X listbox 3 503 52 0 0 0 - - - 0;
#X obj 3 440 onnx model.onnx probabilities label;
#X obj 195 312 list prepend, f 22;
#X obj 65 46 cnv 18 1 1 empty empty <=\ Check\ this\ first\,\ you\ need\ to\ install\ things! 0 0 0 10 #ffffff #ff0400 0;
#X text 68 108 2);
#X text 65 130 3);
#X text 145 154 4);
#X text 192 210 Train model using mfcc from timbreIDLib;
#X text 3 62 1) Folder not provided \, you must create your data.;
#X msg 5 84 trainfolder /home/neimog/Downloads/Flute;
#X msg 185 157 reload;
#X msg 35 155 export flute.onnx;
#X obj 285 84 array define train;
#X connect 1 1 6 0;
#X connect 3 0 4 0;
#X connect 4 0 25 0;
#X connect 5 0 1 1;
#X connect 6 0 3 0;
#X connect 6 1 25 1;
#X connect 7 0 8 0;
#X connect 7 0 8 1;
#X connect 7 0 22 0;
#X connect 9 0 7 0;
#X connect 10 0 1 0;
#X connect 11 0 1 0;
#X connect 12 0 13 0;
#X connect 13 0 14 0;
#X connect 14 0 15 0;
#X connect 15 0 13 1;
#X connect 15 0 16 0;
#X connect 16 0 21 0;
#X connect 17 0 21 0;
#X connect 19 0 24 0;
#X connect 20 0 24 0;
#X connect 21 0 20 0;
#X connect 24 0 23 0;
#X connect 24 1 18 0;
#X connect 25 0 5 0;
#X connect 32 0 1 0;
#X connect 33 0 1 0;
#X connect 34 0 1 0;
